<mxfile host="app.diagrams.net" modified="2024-01-20T10:32:20.044Z" agent="Mozilla/5.0 (Windows NT 10.0; Win64; x64) AppleWebKit/537.36 (KHTML, like Gecko) Chrome/120.0.0.0 Safari/537.36" version="22.1.19" etag="1h-JMcIUvI6IUKEdHdU2" type="github">
  <diagram name="Page-1" id="on8uxN21PSM_cbl4RFSp">
    <mxGraphModel>
      <root>
        <mxCell id="0" />
        <mxCell id="1" parent="0" />
      </root>
    </mxGraphModel>
  </diagram>
</mxfile>
